<svg width="20" height="20" viewBox="0 0 20 20" xmlns="http://www.w3.org/2000/svg"><path d="M6.657 19.062V4.62c0-.375-.2-.55-.548-.55h-1V2.554l-1.49.202C1.64 3.04-.02 4.276.23 6.153l1.59 9.515c.32 1.945 1.52 3.395 3.397 3.395H6.65zM9.55 1.95c.182.27.27.633.27 1.1v4.46c0 .622-.05 1.07-.05 1.07h.05c.598-1.22 2.166-2.514 4.358-2.514 2.84 0 4.433 1.47 4.433 4.83v4.957c0 .35.2.55.55.55h.79c.04-.238.04-.483 0-.733L18.37 4.158c-.287-1.913-1.44-3.17-3.316-2.958l-5.506.75h.002zm5.923 12.216v3.203c0 1.19.498 1.69 1.668 1.69H9.82v-5.83c0-.6.05-1.15.2-1.65.472-1.55 1.768-2.64 3.436-2.64 1.593 0 2.017 1.04 2.017 2.59v1.78c.01-.04.025-.08.04-.12.248-.63.858-.99 1.36-.79.503.2.71.87.46 1.5-.25.63-.86.98-1.36.78-.24-.1-.414-.3-.5-.55zm-3.26-3.687c-.443 0-.802.35-.802.8 0 .44.36.8.81.8.45 0 .8-.36.8-.8 0-.45-.35-.8-.8-.8zm2.123.42c-.443 0-.803.36-.803.8 0 .44.36.8.803.8.442 0 .8-.36.8-.8 0-.45-.358-.8-.8-.8zm-2.123 5.66c1.627 0 2.664-3.19 2.664-3.19-1.627.96-3.347.23-3.867-.22 0 0-.165 3.39 1.203 3.39z" fill="#E54C10" fill-rule="evenodd"/></svg>
